<svg width="634" height="429" viewBox="0 0 634 429" fill="none" xmlns="http://www.w3.org/2000/svg">
<g clip-path="url(#clip0_150_442)">
<path d="M42.6667 323.275C39.6561 323.275 36.6394 323.399 33.6933 323.65L33.2646 323.686C13.7232 325.415 -0.570364 335.442 0.0174913 347.012L0.131137 349.104C0.206081 350.427 0.285931 351.848 0.351656 353.426C0.387253 354.204 1.44815 354.801 2.76823 354.801H483.438C517.327 354.595 551.094 354.336 583.794 354.03C589.927 354.043 596.056 353.726 602.155 353.079C611.243 352.002 617.55 349.869 621.44 346.557H621.441C626.278 342.45 626.43 337.278 626.138 331.434C625.542 319.635 624.951 307.239 624.361 294.882C623.84 283.99 623.322 273.128 622.803 262.729C622.483 256.557 621.77 251.11 616.277 246.946C610.324 242.444 599.466 240.161 584.005 240.161C583.818 240.161 583.632 240.161 583.443 240.162C534.989 240.335 486.978 257.005 463.976 281.644C461.328 284.481 458.859 287.519 456.472 290.457C452.945 294.797 449.299 299.284 444.947 303.297C442.591 305.499 440.043 307.486 437.334 309.235C437.147 309.364 436.933 309.502 436.707 309.634C436.19 309.971 435.65 310.296 435.123 310.586C432.037 312.369 428.785 313.848 425.413 315.002L425.073 315.117C424.817 315.208 424.539 315.3 424.262 315.384C422.314 316.009 420.291 316.55 418.265 316.987C409.497 318.921 399.526 319.384 388.632 318.364C378.628 317.401 368.752 315.388 359.169 312.356C349.08 309.166 339.638 305.189 330.506 301.343C326.495 299.652 322.346 297.905 318.203 296.25C317.424 295.938 316.658 295.634 315.88 295.329C310.82 293.356 306.232 291.726 301.854 290.347C291.009 286.916 279.784 284.836 268.43 284.153C256.379 283.493 245.76 284.738 236.874 287.845C234.424 288.698 232.038 289.727 229.736 290.922C219.211 296.391 212.722 304.462 206.448 312.267C198.643 321.976 190.572 332.016 174.635 337.221C156.246 343.232 129.403 340.735 110.412 336.392C104.441 335.026 98.4779 333.455 92.7104 331.935C90.3811 331.321 88.0502 330.712 85.7176 330.106C81.1338 328.922 77.3825 328.015 73.9118 327.249L72.8141 327.005C72.2035 326.872 71.5923 326.739 70.97 326.613C66.8476 325.747 63.009 325.065 59.2287 324.529L58.3344 324.399C56.5413 324.162 54.8649 323.966 53.2199 323.8L52.5633 323.735C49.3414 323.429 46.0071 323.275 42.6667 323.275Z" fill="#F2F2F2"/>
<path d="M539.707 336.188C553.233 323.993 573.35 317.861 590.225 324.699C572.915 334.315 559.562 349.747 552.529 368.266C549.843 375.417 547.599 383.651 540.991 387.48C536.88 389.862 531.765 389.979 527.155 388.829C522.545 387.679 518.319 385.373 514.152 383.09L512.966 383.064C518.289 365.643 526.182 348.383 539.707 336.188Z" fill="#E6E6E6"/>
<path d="M590.13 325.07C575.185 327.002 561.228 333.597 550.242 343.918C547.838 346.098 545.792 348.644 544.179 351.461C542.697 354.256 541.991 357.398 542.132 360.559C542.205 363.509 542.622 366.518 541.977 369.434C541.624 370.922 540.962 372.319 540.032 373.532C539.103 374.746 537.927 375.749 536.583 376.477C533.28 378.376 529.493 378.975 525.768 379.432C521.633 379.939 517.33 380.4 513.751 382.721C513.317 383.002 512.906 382.312 513.339 382.031C519.567 377.994 527.447 379.463 534.144 376.768C537.268 375.511 540.033 373.304 541.012 369.966C541.868 367.048 541.441 363.945 541.341 360.959C541.158 357.877 541.731 354.797 543.012 351.989C544.475 349.098 546.42 346.478 548.762 344.24C553.955 339.119 559.92 334.846 566.44 331.578C573.86 327.808 581.87 325.335 590.123 324.267C590.634 324.201 590.638 325.004 590.13 325.07Z" fill="white"/>
<path d="M553.584 340.387C552.103 338.307 551.41 335.769 551.627 333.225C551.844 330.682 552.958 328.298 554.77 326.5C555.137 326.138 555.718 326.693 555.349 327.056C553.659 328.727 552.622 330.947 552.425 333.316C552.227 335.685 552.883 338.047 554.273 339.975C554.574 340.394 553.884 340.804 553.584 340.387Z" fill="white"/>
<path d="M541.898 359.068C547.034 359.978 552.324 358.918 556.714 356.1C557.149 355.82 557.56 356.51 557.125 356.789C552.552 359.714 547.045 360.806 541.702 359.846C541.193 359.755 541.392 358.977 541.898 359.068Z" fill="white"/>
<path d="M573.925 328.87C574.33 329.794 574.958 330.603 575.753 331.224C576.548 331.845 577.484 332.259 578.479 332.428C578.989 332.513 578.789 333.291 578.282 333.206C577.185 333.014 576.151 332.556 575.271 331.872C574.392 331.188 573.693 330.298 573.236 329.282C573.185 329.189 573.17 329.081 573.196 328.979C573.222 328.877 573.286 328.788 573.374 328.731C573.466 328.677 573.575 328.662 573.678 328.688C573.781 328.714 573.87 328.779 573.925 328.87Z" fill="white"/>
<path d="M608.807 383.508C608.487 383.464 608.167 383.42 607.842 383.381C603.537 382.809 599.192 382.588 594.851 382.721C594.515 382.725 594.175 382.735 593.84 382.75C583.385 383.18 573.1 385.549 563.509 389.736C559.694 391.405 556.012 393.363 552.494 395.591C547.635 398.669 542.612 402.393 537.181 403.648C536.616 403.786 536.043 403.888 535.465 403.954L513.025 384.513C512.996 384.443 512.962 384.378 512.933 384.308L512.002 383.573C512.175 383.446 512.358 383.317 512.531 383.189C512.632 383.115 512.737 383.045 512.837 382.97C512.906 382.922 512.974 382.874 513.033 382.827C513.056 382.81 513.079 382.794 513.097 382.783C513.156 382.736 513.216 382.698 513.271 382.656C514.29 381.934 515.315 381.218 516.348 380.508C516.352 380.503 516.352 380.503 516.361 380.502C524.177 375.017 532.615 370.479 541.498 366.982C541.765 366.882 542.036 366.776 542.313 366.684C546.313 365.195 550.429 364.036 554.618 363.219C556.914 362.779 559.23 362.455 561.558 362.249C567.575 361.729 573.636 362.158 579.52 363.522C591.247 366.243 601.975 372.687 608.329 382.736C608.491 382.993 608.649 383.246 608.807 383.508Z" fill="#E6E6E6"/>
<path d="M608.509 383.75C595.413 376.289 580.301 373.148 565.319 374.77C562.087 375.062 558.922 375.862 555.939 377.14C553.074 378.48 550.62 380.562 548.831 383.171C547.114 385.571 545.636 388.224 543.366 390.164C542.189 391.14 540.82 391.856 539.347 392.265C537.875 392.674 536.332 392.767 534.822 392.538C531.042 392.065 527.657 390.261 524.409 388.382C520.802 386.296 517.089 384.072 512.834 383.769C512.319 383.732 512.406 382.934 512.92 382.971C520.322 383.499 525.731 389.419 532.699 391.301C535.95 392.18 539.486 392.083 542.275 390.008C544.715 388.193 546.241 385.459 547.959 383.014C549.666 380.443 551.977 378.33 554.69 376.858C557.598 375.432 560.727 374.512 563.943 374.136C571.172 373.175 578.506 373.357 585.677 374.675C593.871 376.134 601.754 378.985 608.987 383.104C609.434 383.359 608.954 384.003 608.509 383.75Z" fill="white"/>
<path d="M570.112 373.964C570.182 371.411 571.155 368.967 572.859 367.067C574.563 365.167 576.887 363.935 579.415 363.59C579.927 363.522 580.057 364.315 579.544 364.383C577.189 364.699 575.025 365.847 573.441 367.62C571.858 369.393 570.96 371.673 570.91 374.05C570.899 374.566 570.101 374.477 570.112 373.964Z" fill="white"/>
<path d="M549.541 381.84C553.094 385.661 557.956 388.001 563.157 388.395C563.672 388.434 563.585 389.232 563.07 389.193C557.659 388.774 552.605 386.327 548.916 382.343C548.565 381.963 549.192 381.462 549.541 381.84Z" fill="white"/>
<path d="M593.284 377.022C593.051 378.004 593.066 379.028 593.327 380.003C593.588 380.977 594.087 381.872 594.779 382.606C595.135 382.981 594.508 383.482 594.154 383.109C593.393 382.295 592.844 381.306 592.553 380.23C592.262 379.154 592.239 378.023 592.486 376.935C592.501 376.831 592.555 376.736 592.637 376.67C592.719 376.604 592.823 376.572 592.928 376.58C593.034 376.592 593.13 376.645 593.197 376.728C593.263 376.81 593.295 376.916 593.284 377.022Z" fill="white"/>
<path d="M185.648 348.316C196.723 331.509 216.534 319.351 236.483 321.967C220.643 337.07 210.653 357.292 208.28 379.055C207.395 387.452 207.285 396.883 201.282 402.817C197.547 406.51 192.109 408.058 186.859 408.111C181.608 408.164 176.448 406.875 171.356 405.594L170.08 405.895C170.93 385.781 174.573 365.124 185.648 348.316Z" fill="#E6E6E6"/>
<path d="M236.485 322.389C221.038 328.616 207.944 339.555 199.064 353.652C197.098 356.653 195.618 359.945 194.677 363.407C193.869 366.809 193.987 370.365 195.017 373.707C195.915 376.841 197.197 379.944 197.318 383.242C197.355 384.932 197.035 386.61 196.378 388.167C195.721 389.724 194.743 391.124 193.508 392.276C190.504 395.227 186.619 396.922 182.763 398.447C178.481 400.14 174.007 401.831 170.824 405.31C170.438 405.731 169.807 405.108 170.192 404.687C175.73 398.635 184.567 398.013 190.98 393.267C193.972 391.052 196.316 387.922 196.434 384.08C196.538 380.721 195.219 377.521 194.282 374.355C193.229 371.11 192.986 367.656 193.575 364.296C194.336 360.797 195.688 357.453 197.571 354.408C201.701 347.485 206.893 341.254 212.957 335.945C219.844 329.847 227.724 324.972 236.254 321.532C236.782 321.32 237.01 322.178 236.485 322.389Z" fill="white"/>
<path d="M201.656 348.944C199.495 347.132 198.047 344.611 197.572 341.83C197.097 339.049 197.626 336.189 199.063 333.762C199.356 333.272 200.131 333.704 199.838 334.195C198.495 336.452 198.003 339.116 198.451 341.705C198.898 344.294 200.256 346.637 202.279 348.312C202.718 348.677 202.093 349.307 201.656 348.944Z" fill="white"/>
<path d="M194.353 372.177C200.099 371.721 205.462 369.115 209.373 364.878C209.761 364.458 210.392 365.082 210.005 365.501C205.927 369.902 200.34 372.603 194.359 373.064C193.789 373.108 193.786 372.22 194.353 372.177Z" fill="white"/>
<path d="M220.21 330.965C220.9 331.84 221.797 332.53 222.82 332.973C223.842 333.416 224.959 333.598 226.07 333.502C226.639 333.452 226.642 334.339 226.076 334.39C224.849 334.49 223.616 334.287 222.485 333.8C221.354 333.314 220.359 332.557 219.587 331.597C219.507 331.512 219.462 331.401 219.461 331.284C219.46 331.168 219.504 331.055 219.583 330.969C219.665 330.886 219.778 330.839 219.895 330.838C220.013 330.837 220.126 330.883 220.21 330.965Z" fill="white"/>
<path d="M272.709 379.693C272.355 379.734 272 379.776 271.642 379.825C266.878 380.412 262.17 381.385 257.564 382.735C257.206 382.833 256.845 382.939 256.491 383.047C245.428 386.418 235.087 391.814 225.994 398.962C222.377 401.809 218.983 404.928 215.84 408.29C211.5 412.935 207.163 418.316 201.703 421.17C201.137 421.475 200.552 421.743 199.953 421.975L170.547 407.429C170.496 407.362 170.443 407.302 170.392 407.235L169.191 406.708C169.341 406.523 169.501 406.335 169.651 406.15C169.738 406.043 169.831 405.938 169.917 405.831C169.977 405.76 170.037 405.69 170.087 405.622C170.107 405.599 170.127 405.575 170.143 405.559C170.193 405.491 170.247 405.434 170.293 405.374C171.182 404.318 172.08 403.267 172.987 402.22C172.99 402.214 172.99 402.214 173 402.21C179.93 394.252 187.585 386.803 196.126 380.753C196.383 380.571 196.643 380.382 196.914 380.207C200.779 377.502 204.858 375.117 209.112 373.076C211.444 371.966 213.832 370.975 216.265 370.107C222.555 367.875 229.157 366.648 235.829 366.469C249.128 366.115 262.393 370.02 271.983 378.999C272.228 379.229 272.467 379.456 272.709 379.693Z" fill="#E6E6E6"/>
<path d="M272.458 380.033C256.377 375.7 239.34 376.546 223.768 382.452C220.393 383.664 217.23 385.4 214.395 387.598C211.703 389.827 209.657 392.738 208.469 396.027C207.3 399.071 206.457 402.32 204.568 405.027C203.581 406.398 202.316 407.545 200.855 408.392C199.393 409.24 197.77 409.768 196.09 409.944C191.916 410.49 187.795 409.503 183.798 408.398C179.36 407.171 174.77 405.826 170.136 406.686C169.574 406.79 169.445 405.912 170.006 405.808C178.07 404.312 185.5 409.139 193.476 409.212C197.197 409.247 200.952 408.159 203.359 405.163C205.463 402.544 206.336 399.194 207.493 396.101C208.604 392.876 210.488 389.972 212.98 387.644C215.694 385.309 218.784 383.453 222.12 382.156C229.584 379.116 237.478 377.269 245.515 376.683C254.684 375.963 263.908 376.818 272.789 379.21C273.338 379.358 273.004 380.181 272.458 380.033Z" fill="white"/>
<path d="M228.67 380.255C228.035 377.506 228.396 374.621 229.69 372.114C230.985 369.607 233.127 367.643 235.736 366.571C236.264 366.356 236.623 367.167 236.094 367.383C233.663 368.376 231.667 370.207 230.467 372.543C229.267 374.88 228.94 377.569 229.548 380.125C229.679 380.681 228.801 380.807 228.67 380.255Z" fill="white"/>
<path d="M208.859 394.405C213.721 397.503 219.572 398.653 225.244 397.626C225.806 397.524 225.935 398.402 225.373 398.504C219.469 399.561 213.383 398.352 208.33 395.117C207.849 394.809 208.38 394.098 208.859 394.405Z" fill="white"/>
<path d="M254.303 377.076C254.328 378.191 254.628 379.282 255.178 380.252C255.729 381.222 256.511 382.039 257.455 382.632C257.94 382.934 257.408 383.645 256.926 383.344C255.886 382.685 255.023 381.781 254.413 380.71C253.803 379.64 253.464 378.437 253.426 377.206C253.413 377.09 253.444 376.973 253.513 376.88C253.583 376.786 253.685 376.723 253.8 376.702C253.916 376.685 254.034 376.715 254.128 376.785C254.223 376.855 254.285 376.96 254.303 377.076Z" fill="white"/>
<path d="M264.467 222.305C265.202 221.574 265.768 220.69 266.124 219.716C266.481 218.742 266.619 217.702 266.531 216.668C266.442 215.635 266.128 214.634 265.61 213.735C265.093 212.836 264.385 212.062 263.536 211.466L275.111 155.418L262.623 159.36L253.311 213.582C252.406 215.075 252.08 216.848 252.394 218.566C252.708 220.284 253.642 221.826 255.017 222.902C256.392 223.977 258.113 224.51 259.855 224.4C261.597 224.29 263.238 223.545 264.467 222.305Z" fill="#FFB6B6"/>
<path d="M291.221 72.4854L283.485 66.6431C283.485 66.6431 276.661 66.1596 275.453 78.4724C274.244 90.7852 266.677 138.042 266.677 138.042L254.841 192.895L271.226 196.494L283.904 137.297L296.595 96.4571L291.221 72.4854Z" fill="#E6E6E6"/>
<path d="M285.328 173.984L248.223 145.117C247.645 144.666 247.27 144.004 247.179 143.277C247.088 142.549 247.289 141.816 247.738 141.236L272.984 108.749C273.434 108.171 274.096 107.795 274.823 107.704C275.55 107.613 276.283 107.814 276.862 108.264L313.967 137.131C314.545 137.582 314.921 138.244 315.012 138.971C315.103 139.699 314.902 140.432 314.453 141.012L289.207 173.499C288.756 174.077 288.095 174.453 287.368 174.544C286.641 174.635 285.907 174.434 285.328 173.984Z" fill="#3F3D56"/>
<path d="M285.124 170.997L251.166 144.578C250.653 144.178 250.32 143.591 250.239 142.945C250.158 142.299 250.337 141.647 250.735 141.133L273.622 111.682C274.022 111.169 274.609 110.835 275.255 110.754C275.9 110.673 276.551 110.852 277.065 111.251L311.023 137.67C311.536 138.07 311.87 138.657 311.95 139.303C312.031 139.949 311.853 140.601 311.454 141.115L288.567 170.566C288.167 171.079 287.58 171.413 286.935 171.494C286.289 171.575 285.638 171.396 285.124 170.997Z" fill="white"/>
<path d="M255.618 143.829C255.49 143.729 255.407 143.582 255.387 143.421C255.366 143.259 255.411 143.096 255.511 142.968L267.056 128.111C267.156 127.982 267.303 127.899 267.464 127.878C267.544 127.868 267.625 127.874 267.703 127.896C267.781 127.917 267.854 127.954 267.917 128.003C267.981 128.052 268.034 128.114 268.074 128.184C268.114 128.254 268.139 128.331 268.149 128.411C268.159 128.491 268.153 128.572 268.132 128.65C268.111 128.728 268.074 128.801 268.025 128.864L256.479 143.721C256.379 143.85 256.233 143.933 256.071 143.953C255.91 143.974 255.747 143.929 255.618 143.829Z" fill="#E4E4E4"/>
<path d="M257.532 145.318C257.403 145.218 257.32 145.071 257.3 144.91C257.279 144.748 257.324 144.585 257.424 144.457L268.969 129.599C269.069 129.471 269.216 129.387 269.378 129.367C269.539 129.347 269.702 129.392 269.83 129.492C269.959 129.592 270.042 129.738 270.062 129.9C270.083 130.062 270.038 130.224 269.938 130.353L258.392 145.21C258.292 145.339 258.146 145.422 257.984 145.442C257.823 145.462 257.66 145.418 257.532 145.318Z" fill="#E4E4E4"/>
<path d="M265.987 138.39C265.858 138.29 265.775 138.143 265.755 137.981C265.735 137.82 265.779 137.657 265.879 137.528L270.884 131.088C270.933 131.024 270.994 130.971 271.065 130.931C271.135 130.891 271.212 130.865 271.292 130.855C271.372 130.845 271.453 130.851 271.531 130.872C271.609 130.894 271.681 130.93 271.745 130.98C271.809 131.029 271.862 131.091 271.902 131.161C271.942 131.231 271.967 131.308 271.977 131.388C271.987 131.469 271.981 131.55 271.96 131.628C271.938 131.705 271.902 131.778 271.852 131.842L266.847 138.282C266.748 138.41 266.601 138.494 266.439 138.514C266.278 138.534 266.115 138.49 265.987 138.39Z" fill="#E4E4E4"/>
<path d="M268.567 151.028C268.438 150.928 268.355 150.781 268.335 150.62C268.315 150.458 268.359 150.295 268.459 150.167L286.686 126.712C286.735 126.648 286.797 126.595 286.867 126.555C286.937 126.515 287.014 126.49 287.094 126.48C287.174 126.47 287.255 126.475 287.333 126.497C287.41 126.518 287.483 126.555 287.547 126.604C287.61 126.654 287.664 126.715 287.703 126.785C287.743 126.855 287.769 126.932 287.779 127.012C287.789 127.092 287.783 127.174 287.762 127.251C287.74 127.329 287.704 127.402 287.654 127.465L269.428 150.92C269.328 151.049 269.181 151.132 269.019 151.152C268.858 151.172 268.695 151.128 268.567 151.028Z" fill="#E4E4E4"/>
<path d="M270.48 152.517C270.352 152.417 270.268 152.27 270.248 152.108C270.228 151.947 270.272 151.784 270.372 151.655L288.599 128.201C288.648 128.137 288.71 128.084 288.78 128.044C288.85 128.004 288.927 127.978 289.007 127.968C289.087 127.958 289.168 127.964 289.246 127.985C289.324 128.007 289.396 128.043 289.46 128.093C289.523 128.142 289.577 128.204 289.617 128.274C289.656 128.344 289.682 128.421 289.692 128.501C289.702 128.581 289.696 128.662 289.675 128.74C289.653 128.818 289.617 128.89 289.568 128.954L271.341 152.409C271.241 152.537 271.094 152.621 270.932 152.641C270.771 152.661 270.608 152.616 270.48 152.517Z" fill="#E4E4E4"/>
<path d="M274.824 155.896C274.695 155.796 274.612 155.649 274.592 155.488C274.571 155.326 274.616 155.163 274.716 155.035L292.943 131.58C292.992 131.516 293.054 131.463 293.124 131.423C293.194 131.383 293.271 131.358 293.351 131.348C293.431 131.338 293.512 131.344 293.59 131.365C293.667 131.386 293.74 131.423 293.804 131.472C293.867 131.522 293.92 131.583 293.96 131.653C294 131.723 294.026 131.801 294.036 131.881C294.046 131.961 294.04 132.042 294.019 132.119C293.997 132.197 293.961 132.27 293.911 132.334L275.684 155.788C275.584 155.917 275.438 156 275.276 156.02C275.115 156.041 274.952 155.996 274.824 155.896Z" fill="#E4E4E4"/>
<path d="M276.738 157.385C276.609 157.285 276.526 157.138 276.506 156.976C276.486 156.815 276.53 156.652 276.63 156.524L294.857 133.069C294.906 133.005 294.968 132.952 295.038 132.912C295.108 132.872 295.185 132.846 295.265 132.836C295.345 132.826 295.426 132.832 295.504 132.854C295.581 132.875 295.654 132.911 295.718 132.961C295.781 133.01 295.835 133.072 295.874 133.142C295.914 133.212 295.94 133.289 295.95 133.369C295.96 133.449 295.954 133.53 295.933 133.608C295.911 133.686 295.875 133.759 295.825 133.822L277.598 157.277C277.498 157.405 277.352 157.489 277.19 157.509C277.029 157.529 276.866 157.485 276.738 157.385Z" fill="#E4E4E4"/>
<path d="M281.081 160.764C280.953 160.664 280.87 160.517 280.849 160.356C280.829 160.194 280.874 160.032 280.974 159.903L299.201 136.448C299.25 136.385 299.312 136.331 299.382 136.291C299.452 136.252 299.529 136.226 299.609 136.216C299.689 136.206 299.77 136.212 299.847 136.233C299.925 136.254 299.998 136.291 300.061 136.34C300.125 136.39 300.178 136.451 300.218 136.521C300.258 136.592 300.284 136.669 300.294 136.749C300.304 136.829 300.298 136.91 300.276 136.988C300.255 137.065 300.219 137.138 300.169 137.202L281.942 160.656C281.842 160.785 281.695 160.868 281.534 160.888C281.373 160.909 281.21 160.864 281.081 160.764Z" fill="#E4E4E4"/>
<path d="M282.994 162.253C282.866 162.153 282.783 162.006 282.763 161.845C282.742 161.683 282.787 161.52 282.887 161.392L301.114 137.937C301.214 137.809 301.36 137.726 301.522 137.706C301.683 137.686 301.845 137.731 301.973 137.831C302.102 137.93 302.185 138.077 302.205 138.238C302.226 138.399 302.182 138.562 302.082 138.69L283.855 162.145C283.755 162.274 283.609 162.357 283.447 162.377C283.286 162.397 283.123 162.353 282.994 162.253Z" fill="#E4E4E4"/>
<path d="M252.531 189.492C252.67 189.492 252.783 189.379 252.783 189.24C252.783 189.101 252.67 188.988 252.531 188.988C252.392 188.988 252.279 189.101 252.279 189.24C252.279 189.379 252.392 189.492 252.531 189.492Z" fill="white"/>
<path d="M289.232 15.8436C288.346 20.6061 286.894 25.2452 284.905 29.662C273.519 53.7635 305.945 45.9076 317.533 45.9076C330.203 45.9076 342.325 52.5738 340.474 22.9538C339.683 10.3015 330.203 0 317.533 0C306.711 0 291.495 4.81296 289.232 15.8436Z" fill="#2F2E41"/>
<path d="M329.344 369.324H318.549L313.412 327.664H329.344V369.324Z" fill="#FFB6B6"/>
<path d="M335.041 388.038H327.3L325.918 380.726L322.379 388.038H301.847C300.863 388.039 299.905 387.724 299.112 387.14C298.319 386.557 297.733 385.735 297.441 384.795C297.148 383.855 297.163 382.845 297.484 381.915C297.805 380.984 298.415 380.18 299.225 379.62L315.621 368.29V360.897L332.866 361.927L335.041 388.038Z" fill="#2F2E41"/>
<path d="M393.475 355.694L384.813 362.139L355.846 331.776L368.63 322.263L393.475 355.694Z" fill="#FFB6B6"/>
<path d="M409.207 367.309L402.995 371.931L397.525 366.888L399.047 374.869L382.571 387.128C381.781 387.715 380.824 388.035 379.84 388.04C378.856 388.045 377.896 387.735 377.1 387.156C376.305 386.576 375.715 385.757 375.417 384.819C375.12 383.88 375.13 382.871 375.446 381.938L381.846 363.057L377.437 357.125L391.89 347.654L409.207 367.309Z" fill="#2F2E41"/>
<path d="M293.989 177.59L345.232 169.604L335.041 138.931H293.989V177.59Z" fill="#FFB6B6"/>
<path d="M341.911 154.379C341.911 154.379 362.392 172.084 352.943 222.557L341.406 272.012L372.838 326.613L356.855 335.336L318.121 281.469L300.396 239.869L291.021 166.961L341.911 154.379Z" fill="#2F2E41"/>
<path d="M310.166 251.724L308.934 270.813L312.54 327.34L330.443 333.508L333.834 275.591L310.166 251.724Z" fill="#2F2E41"/>
<path d="M304.661 52.2607L324.469 53.0338L332.363 66.1452L350.374 69.6633L339.622 124.088L341.599 155.066L323.665 154.957C310.741 154.878 298.242 159.576 288.566 168.15L289.103 127.938L281.389 97.9207L283.122 66.4453L297.611 64.6331L304.661 52.2607Z" fill="#E6E6E6"/>
<path d="M315.635 45.902C325.931 45.902 334.277 37.5509 334.277 27.2494C334.277 16.9479 325.931 8.59682 315.635 8.59682C305.339 8.59682 296.993 16.9479 296.993 27.2494C296.993 37.5509 305.339 45.902 315.635 45.902Z" fill="#FFB6B6"/>
<path d="M302.976 8.23567C306.242 6.24308 309.984 5.16519 313.809 5.11473C317.635 5.06426 321.404 6.04308 324.722 7.94882C328.04 9.85457 330.785 12.6172 332.671 15.948C334.557 19.2787 335.513 23.0552 335.441 26.8825C325.942 29.2688 315.963 31.0949 305.833 27.4533L303.44 21.595L302.03 27.4576C298.945 28.7193 295.852 29.7867 292.759 27.4454C292.633 23.6289 293.51 19.8461 295.303 16.475C297.096 13.104 299.741 10.2629 302.976 8.23567Z" fill="#2F2E41"/>
<path d="M346.926 192.672L349.439 215.491C349.614 216.06 349.967 216.558 350.446 216.912C350.924 217.266 351.504 217.457 352.099 217.457H363.683C364.279 217.457 364.858 217.266 365.337 216.912C365.816 216.559 366.169 216.06 366.344 215.491L368.426 198.001C369.026 198.296 369.689 198.444 370.358 198.433C371.027 198.421 371.683 198.251 372.274 197.937C372.865 197.622 373.372 197.172 373.755 196.622C374.138 196.073 374.384 195.441 374.475 194.778C374.566 194.114 374.498 193.439 374.278 192.807C374.057 192.175 373.689 191.604 373.205 191.142C372.721 190.68 372.134 190.34 371.492 190.149C370.851 189.958 370.174 189.922 369.516 190.044C369.256 189.737 368.933 189.491 368.568 189.322C368.203 189.153 367.806 189.066 367.404 189.067H349.587C349.151 189.067 348.721 189.169 348.333 189.366C347.944 189.562 347.606 189.847 347.347 190.198C347.089 190.548 346.916 190.955 346.842 191.385C346.769 191.814 346.798 192.255 346.926 192.672ZM368.789 196.818L370.064 192.672C370.212 192.193 370.227 191.684 370.106 191.197C370.161 191.195 370.212 191.181 370.267 191.181C371.068 191.181 371.836 191.499 372.402 192.066C372.968 192.632 373.286 193.4 373.286 194.201C373.286 195.002 372.968 195.771 372.402 196.337C371.836 196.904 371.068 197.222 370.267 197.222C369.748 197.218 369.239 197.079 368.789 196.818Z" fill="#6C63FF"/>
<path d="M364.393 217.473C363.662 216.738 363.101 215.851 362.75 214.875C362.398 213.9 362.265 212.859 362.359 211.826C362.453 210.793 362.772 209.793 363.294 208.897C363.816 208.001 364.528 207.23 365.379 206.639L354.09 150.533L366.557 154.538L375.594 208.807C376.491 210.304 376.808 212.079 376.485 213.795C376.162 215.511 375.221 217.049 373.841 218.117C372.46 219.186 370.736 219.71 368.995 219.591C367.253 219.473 365.616 218.719 364.393 217.473Z" fill="#FFB6B6"/>
<path d="M342.639 75.5057L350.374 69.6633C350.374 69.6633 357.198 69.1798 358.406 81.4926C359.615 93.8055 367.182 141.062 367.182 141.062L379.018 195.915L362.633 199.514L349.955 140.317L337.265 99.4773L342.639 75.5057Z" fill="#E6E6E6"/>
<path d="M275.878 126.58C278.296 126.58 280.256 124.618 280.256 122.198C280.256 119.779 278.296 117.817 275.878 117.817C273.459 117.817 271.499 119.779 271.499 122.198C271.499 124.618 273.459 126.58 275.878 126.58Z" fill="#6C63FF"/>
<path d="M136.249 420.15L145.374 420.149L149.715 384.932L136.247 384.932L136.249 420.15Z" fill="#FFB6B6"/>
<path d="M133.921 417.168L136.489 417.168L146.517 413.088L151.892 417.168C154.929 417.168 157.843 418.375 159.991 420.524C162.138 422.673 163.345 425.588 163.345 428.627V428.999L133.921 429L133.921 417.168Z" fill="#2F2E41"/>
<path d="M171.61 414.396L180.512 416.407L192.5 383.011L179.362 380.043L171.61 414.396Z" fill="#FFB6B6"/>
<path d="M169.996 410.975L172.501 411.541L183.181 409.771L187.526 414.935L187.526 414.935C190.489 415.605 193.064 417.424 194.686 419.994C196.308 422.563 196.844 425.672 196.175 428.637L196.093 429L167.392 422.516L169.996 410.975Z" fill="#2F2E41"/>
<path d="M119.542 238.996L127.794 331.5C127.794 331.5 124.702 387.036 134.679 406.578H149.148L156.312 326.429L157.211 272.632L188.232 318.018L168.474 405.268L186.282 406.861L218.344 312.175L183.12 223.286L119.542 238.996Z" fill="#2F2E41"/>
<path d="M128.185 91.6844C139.938 91.6844 149.466 82.1513 149.466 70.3915C149.466 58.6317 139.938 49.0986 128.185 49.0986C116.432 49.0986 106.904 58.6317 106.904 70.3915C106.904 82.1513 116.432 91.6844 128.185 91.6844Z" fill="#FFB8B8"/>
<path d="M165.595 111.976L148.136 104.48L139.637 95.4606L118.406 98.8867L112.773 108.551L94.5371 125.517L115.902 222.175L115.255 243.286C115.255 243.286 128.93 249.445 188.232 235.263C188.943 235.093 187.455 234.349 187.455 234.349L165.595 111.976Z" fill="#3F3D56"/>
<path d="M106.056 82.4736C105.907 82.2711 105.761 82.0669 105.615 81.8611C105.557 81.9847 105.51 82.1124 105.443 82.2332L106.056 82.4736Z" fill="#2F2E41"/>
<path d="M149.353 54.8166C147.931 51.716 145.395 49.2644 142.249 47.9489C139.13 46.6904 135.645 46.6935 132.529 47.9574C129.716 46.1789 126.59 44.7689 123.298 44.5943C120.006 44.4197 116.525 45.6417 114.496 48.3317C114.043 49.0417 113.529 49.7106 112.959 50.3305C111.328 51.8415 108.85 51.6236 106.682 51.3146C107.654 52.1483 108.627 52.982 109.599 53.8157C108.423 54.1233 107.246 54.4309 106.069 54.7386C107.442 55.572 108.815 56.4054 110.188 57.2389C106.202 59.6333 104.389 64.8593 104.868 69.6057C105.321 74.0994 107.489 78.2086 110.081 81.861C111.115 79.6778 110.892 77.0654 110.875 74.6065C110.858 72.0084 111.317 69.0581 113.398 67.606C114.801 66.6266 116.606 66.5828 118.299 66.5921C126.836 66.639 135.364 67.1717 143.841 68.1876C144.991 68.2374 146.113 68.5629 147.111 69.1367C148.986 70.4163 149.351 73.0571 149.54 75.3738C150.53 71.5485 151.015 67.6097 150.981 63.6583C151.065 60.6294 150.51 57.6169 149.353 54.8166Z" fill="#2F2E41"/>
<path d="M155.979 303.842C174.478 303.842 189.474 288.838 189.474 270.329C189.474 251.819 174.478 236.815 155.979 236.815C137.48 236.815 122.484 251.819 122.484 270.329C122.484 288.838 137.48 303.842 155.979 303.842Z" fill="white"/>
<path d="M155.979 236.07C154.257 236.07 152.538 236.2 150.836 236.457C149.965 236.584 149.117 236.748 148.275 236.949C142.096 238.374 136.434 241.489 131.921 245.946C127.408 250.403 124.222 256.028 122.717 262.191C121.213 268.355 121.45 274.816 123.401 280.852C125.352 286.889 128.942 292.265 133.769 296.38C134.342 296.864 134.922 297.333 135.525 297.78C139.871 301.022 144.923 303.185 150.267 304.091C155.611 304.997 161.094 304.62 166.264 302.992C171.434 301.364 176.144 298.53 180.006 294.725C183.868 290.919 186.772 286.25 188.478 281.103C190.184 275.955 190.644 270.476 189.82 265.115C188.997 259.755 186.912 254.667 183.739 250.27C180.566 245.873 176.395 242.293 171.569 239.824C166.742 237.356 161.399 236.069 155.979 236.07ZM155.979 303.097C149.015 303.105 142.233 300.878 136.627 296.745C136.016 296.298 135.428 295.836 134.855 295.345C130.153 291.375 126.663 286.16 124.787 280.297C122.911 274.434 122.725 268.161 124.25 262.197C125.774 256.233 128.948 250.82 133.407 246.578C137.866 242.336 143.429 239.438 149.459 238.215C150.292 238.044 151.126 237.91 151.975 237.805C153.303 237.641 154.641 237.559 155.979 237.56C164.665 237.56 172.995 241.012 179.137 247.157C185.279 253.303 188.729 261.638 188.729 270.328C188.729 279.019 185.279 287.354 179.137 293.5C172.995 299.645 164.665 303.097 155.979 303.097Z" fill="#3F3D56"/>
<path d="M139.55 263.626H172.407C173.611 263.626 174.587 262.649 174.587 261.445V261.338C174.587 260.134 173.611 259.157 172.407 259.157H139.55C138.346 259.157 137.371 260.134 137.371 261.338V261.445C137.371 262.649 138.346 263.626 139.55 263.626Z" fill="#6C63FF"/>
<path d="M139.55 272.563H172.407C173.611 272.563 174.587 271.586 174.587 270.382V270.275C174.587 269.071 173.611 268.094 172.407 268.094H139.55C138.346 268.094 137.371 269.071 137.371 270.275V270.382C137.371 271.586 138.346 272.563 139.55 272.563Z" fill="#6C63FF"/>
<path d="M139.55 281.5H172.407C173.611 281.5 174.587 280.523 174.587 279.319V279.212C174.587 278.008 173.611 277.031 172.407 277.031H139.55C138.346 277.031 137.371 278.008 137.371 279.212V279.319C137.371 280.523 138.346 281.5 139.55 281.5Z" fill="#6C63FF"/>
<path d="M530.71 419.013L521.141 419.012L516.589 382.084L530.711 382.085L530.71 419.013Z" fill="#9E616A"/>
<path d="M485.442 419.013L475.874 419.012L471.322 382.084L485.444 382.085L485.442 419.013Z" fill="#9E616A"/>
<path d="M485.779 429L456.355 428.999V428.627C456.356 425.588 457.562 422.673 459.71 420.524C461.858 418.375 464.771 417.168 467.808 417.168H467.809L473.183 413.088L483.211 417.168L485.78 417.168L485.779 429Z" fill="#2F2E41"/>
<path d="M532.274 429L502.851 428.999V428.627C502.851 425.588 504.057 422.673 506.205 420.524C508.353 418.375 511.266 417.168 514.303 417.168H514.304L519.678 413.088L529.706 417.168L532.275 417.168L532.274 429Z" fill="#2F2E41"/>
<path d="M476.057 200.462L461.515 289.059L465.472 302.262L460.279 311.612L467.905 393.73L464.81 400.549L473.459 405.886H491.059L491.993 331.544L496.34 320.629V314.614L505.19 269.282L506.82 332.766L509.394 343.698L507.232 351.482L510.057 356.935L517.563 407.506H537.298L535.772 395.741C537.491 394.87 538.872 393.452 539.698 391.71C540.523 389.968 540.747 388.001 540.334 386.118L539.203 380.962L541.778 365.714L546.468 280.65L545.145 212.014L522.059 194.35L476.057 200.462Z" fill="#2F2E41"/>
<path d="M509.394 86.6931C519.521 86.6931 527.73 78.4793 527.73 68.3471C527.73 58.2149 519.521 50.0012 509.394 50.0012C499.268 50.0012 491.059 58.2149 491.059 68.3471C491.059 78.4793 499.268 86.6931 509.394 86.6931Z" fill="#9E616A"/>
<path d="M469.333 235.62C470.131 234.795 470.738 233.805 471.112 232.72C471.486 231.635 471.618 230.481 471.498 229.339C471.379 228.197 471.01 227.096 470.419 226.112C469.827 225.128 469.028 224.286 468.076 223.645L475.206 196.666L461.469 201.289L456.804 226.2C455.834 227.871 455.51 229.84 455.894 231.735C456.277 233.629 457.342 235.317 458.887 236.478C460.431 237.639 462.347 238.193 464.273 238.035C466.198 237.877 467.998 237.018 469.333 235.62Z" fill="#9E616A"/>
<path d="M476.836 106.091L473.888 105.479L471.373 106.872C471.373 106.872 464.349 116.243 464.349 124.833C464.349 133.423 455.764 216.2 455.764 216.2L471.373 223.228L483.861 158.412L476.836 106.091Z" fill="#E6E6E6"/>
<path d="M525.451 54.8962C525.451 54.8962 530.247 45.7232 519.696 44.8893C519.696 44.8893 510.702 36.7256 501.534 43.3969C501.534 43.3969 496.533 43.3969 493.799 49.0588C493.799 49.0588 489.866 47.5664 489.002 51.5605C489.002 51.5605 486.124 59.8996 489.002 67.4048C491.88 74.91 492.835 75.7439 492.835 75.7439C492.835 75.7439 488.107 60.0089 499.617 59.175C511.128 58.3411 524.008 51.1436 524.968 60.3166C525.927 69.4895 527.37 71.7497 527.37 71.7497C527.37 71.7497 536.482 58.6488 525.451 54.8962Z" fill="#2F2E41"/>
<path d="M592.429 311.612C591.045 311.614 589.71 311.104 588.679 310.18L533.189 260.758C532.071 259.76 531.394 258.358 531.307 256.861C531.22 255.365 531.731 253.894 532.726 252.773L568.272 212.818C569.27 211.699 570.671 211.021 572.167 210.934C573.663 210.847 575.132 211.357 576.253 212.353L631.742 261.776C632.862 262.774 633.54 264.175 633.627 265.672C633.714 267.17 633.203 268.64 632.206 269.76L596.659 309.716C596.167 310.273 595.569 310.726 594.901 311.05C594.232 311.373 593.506 311.561 592.765 311.602C592.653 311.609 592.541 311.612 592.429 311.612Z" fill="white"/>
<path d="M592.43 311.976C590.957 311.978 589.535 311.435 588.438 310.452L532.948 261.03C531.758 259.967 531.038 258.476 530.946 256.883C530.853 255.289 531.396 253.725 532.455 252.531L568.002 212.575C569.064 211.385 570.554 210.664 572.146 210.572C573.739 210.479 575.302 211.022 576.495 212.081L631.985 261.505C633.176 262.566 633.898 264.058 633.99 265.651C634.083 267.245 633.539 268.81 632.478 270.002L596.931 309.958C596.407 310.55 595.771 311.032 595.06 311.377C594.348 311.722 593.576 311.922 592.787 311.966C592.667 311.972 592.548 311.976 592.43 311.976ZM572.498 212.014C571.854 212.013 571.216 212.148 570.629 212.412C570.041 212.675 569.515 213.061 569.087 213.542L533.54 253.498C532.737 254.403 532.325 255.59 532.396 256.798C532.466 258.007 533.012 259.138 533.915 259.944L589.404 309.366C589.852 309.765 590.373 310.071 590.939 310.268C591.505 310.465 592.104 310.549 592.702 310.514C593.301 310.479 593.886 310.327 594.425 310.065C594.965 309.804 595.447 309.439 595.846 308.991L631.393 269.035C632.197 268.131 632.61 266.944 632.54 265.736C632.47 264.527 631.922 263.396 631.019 262.591L575.529 213.167C574.695 212.423 573.615 212.013 572.498 212.014Z" fill="#3F3D56"/>
<path d="M612.551 273.772C611.952 273.773 611.374 273.553 610.926 273.153L567.369 234.358C567.128 234.145 566.932 233.886 566.791 233.596C566.65 233.307 566.567 232.992 566.548 232.671C566.529 232.349 566.574 232.027 566.679 231.723C566.784 231.419 566.949 231.138 567.163 230.898C567.377 230.657 567.636 230.461 567.926 230.321C568.216 230.181 568.531 230.1 568.852 230.082C569.173 230.064 569.495 230.109 569.799 230.216C570.102 230.322 570.382 230.488 570.622 230.702L614.179 269.498C614.55 269.827 614.811 270.262 614.929 270.744C615.047 271.226 615.015 271.733 614.839 272.196C614.662 272.66 614.349 273.059 613.94 273.34C613.532 273.622 613.047 273.772 612.551 273.772Z" fill="#6C63FF"/>
<path d="M604.243 283.11C603.644 283.111 603.066 282.891 602.618 282.492L559.061 243.696C558.822 243.483 558.626 243.224 558.486 242.935C558.346 242.645 558.265 242.331 558.246 242.011C558.228 241.69 558.272 241.368 558.378 241.065C558.483 240.761 558.648 240.482 558.861 240.242C559.075 240.002 559.334 239.806 559.623 239.666C559.912 239.526 560.226 239.445 560.546 239.426C560.867 239.407 561.188 239.452 561.491 239.558C561.795 239.663 562.074 239.828 562.314 240.041L605.871 278.836C606.242 279.166 606.503 279.601 606.621 280.083C606.739 280.565 606.707 281.071 606.531 281.535C606.354 281.999 606.041 282.398 605.632 282.679C605.224 282.96 604.739 283.11 604.243 283.11Z" fill="#6C63FF"/>
<path d="M595.935 292.449C595.335 292.45 594.757 292.23 594.31 291.83L550.752 253.036C550.512 252.822 550.316 252.563 550.176 252.274C550.036 251.985 549.954 251.671 549.935 251.349C549.916 251.028 549.961 250.707 550.066 250.403C550.172 250.099 550.336 249.819 550.55 249.579C550.764 249.339 551.022 249.143 551.312 249.003C551.601 248.863 551.915 248.781 552.236 248.763C552.557 248.745 552.879 248.79 553.182 248.895C553.486 249.001 553.765 249.166 554.005 249.38L597.562 288.175C597.933 288.505 598.194 288.94 598.312 289.422C598.43 289.904 598.398 290.41 598.222 290.874C598.045 291.338 597.732 291.737 597.324 292.018C596.915 292.299 596.431 292.45 595.935 292.449Z" fill="#6C63FF"/>
<path d="M546.124 237.212C545.565 236.21 545.233 235.097 545.15 233.952C545.068 232.807 545.237 231.658 545.646 230.585C546.056 229.513 546.695 228.543 547.52 227.745C548.344 226.946 549.333 226.338 550.418 225.964L550.465 198.058L562.551 206.062L560.653 231.334C561.161 233.199 560.968 235.186 560.11 236.917C559.252 238.649 557.789 240.006 555.998 240.73C554.207 241.455 552.213 241.497 550.393 240.849C548.573 240.2 547.054 238.906 546.124 237.212Z" fill="#9E616A"/>
<path d="M547.241 113.738L552.64 108.531L556.606 111.395C556.606 111.395 560.509 116.081 563.631 130.137C566.752 144.194 563.631 221.504 563.631 221.504L546.46 219.162L548.802 178.554L541.777 144.194L547.241 113.738Z" fill="#E6E6E6"/>
<path d="M555.214 109.801L537.023 101.107L524.673 89.6454L502.152 89.4768L494.887 98.9264L475.708 105.445L478.904 171.616L476.725 176.704C476.725 176.704 478.243 178.077 478.937 178.844C479.631 179.612 477.978 186.038 477.978 186.038L477.047 193.029L479.631 194.877L476.272 198.847L475.438 205.105C475.438 205.105 534.076 190.522 545.155 214.68C545.741 215.957 544.299 203.482 544.299 203.482L542.858 194.35L544.288 186.154L546.467 183.973L542.812 180.316L545.155 162.962L555.214 109.801Z" fill="#3F3D56"/>
<path d="M142.688 256.497C143.139 255.35 143.334 254.118 143.258 252.887C143.182 251.657 142.837 250.458 142.248 249.376C141.66 248.293 140.84 247.353 139.849 246.621C138.858 245.89 137.718 245.384 136.51 245.141L132.469 215.452L120.753 225.699L126.386 252.322C126.112 254.379 126.602 256.465 127.763 258.185C128.924 259.905 130.674 261.139 132.684 261.654C134.693 262.168 136.821 261.928 138.665 260.977C140.509 260.027 141.94 258.432 142.688 256.497Z" fill="#FFB8B8"/>
<path d="M96.7855 124.974L93.6098 125.583L91.6902 128.001C91.6902 128.001 88.5848 140.188 92.1224 148.705C95.6599 157.222 121.237 242.836 121.237 242.836L139.608 243.369L125.297 173.955L96.7855 124.974Z" fill="#3F3D56"/>
<path d="M169.21 252.141C168.364 251.246 167.724 250.175 167.336 249.005C166.948 247.835 166.821 246.595 166.964 245.37C167.107 244.146 167.517 242.968 168.164 241.919C168.811 240.87 169.68 239.976 170.71 239.3L163.396 210.244L178.087 215.382L182.78 242.186C183.801 243.993 184.124 246.111 183.688 248.14C183.252 250.169 182.087 251.967 180.414 253.195C178.742 254.422 176.677 254.992 174.612 254.798C172.547 254.604 170.625 253.659 169.21 252.141Z" fill="#FFB8B8"/>
<path d="M162.791 112.978L165.965 112.358L168.647 113.886C168.647 113.886 176.07 124.036 175.961 133.259C175.853 142.481 184.023 231.463 184.023 231.463L167.175 238.811L154.588 169.064L162.791 112.978Z" fill="#3F3D56"/>
</g>
<defs>
<clipPath id="clip0_150_442">
<rect width="634" height="429" fill="white"/>
</clipPath>
</defs>
</svg>
